<svg xmlns="http://www.w3.org/2000/svg"><symbol id="threads" viewBox="0 0 24 24"><path d="m16.785,11.197c-.095-.045-.192-.089-.29-.131-.17-3.129-1.887-4.92-4.769-4.939-.013,0-.026,0-.039,0-1.724,0-3.157.733-4.04,2.067l1.585,1.083c.659-.996,1.694-1.209,2.455-1.209.009,0,.018,0,.026,0,.949.006,1.665.281,2.128.817.337.39.563.929.674,1.61-.841-.142-1.751-.186-2.724-.131-2.74.157-4.501,1.749-4.383,3.961.06,1.122.621,2.087,1.58,2.718.811.533,1.855.794,2.94.735,1.433-.078,2.557-.623,3.341-1.619.596-.756.972-1.736,1.139-2.971.683.411,1.189.951,1.469,1.6.475,1.104.503,2.918-.983,4.397-1.302,1.296-2.867,1.856-5.232,1.874-2.624-.019-4.608-.858-5.898-2.491-1.208-1.53-1.832-3.739-1.856-6.568.023-2.828.648-5.038,1.856-6.568,1.29-1.634,3.274-2.472,5.898-2.491,2.643.02,4.661.862,6.001,2.503.657.805,1.152,1.817,1.478,2.998l1.857-.494c-.396-1.453-1.018-2.705-1.866-3.743-1.717-2.105-4.229-3.183-7.464-3.205h-.013c-3.229.022-5.713,1.105-7.381,3.217-1.485,1.88-2.25,4.496-2.276,7.775v.008s0,.008,0,.008c.026,3.279.791,5.895,2.276,7.775,1.668,2.113,4.152,3.195,7.381,3.217h.013c2.871-.02,4.895-.769,6.562-2.428,2.181-2.171,2.116-4.892,1.397-6.562-.516-1.198-1.499-2.171-2.844-2.813Zm-4.957,4.643c-1.201.067-2.448-.47-2.51-1.62-.046-.853.609-1.804,2.584-1.918.226-.013.448-.019.666-.019.717,0,1.388.069,1.998.202-.228,2.83-1.562,3.29-2.738,3.354Z" /></symbol><symbol id="bluesky" viewBox="0 0 24 24"><path d="M5.769,3.346c2.522,1.955,5.235,5.919,6.231,8.047v5.619c0-.12-.045.016-.141.307-.52,1.576-2.55,7.729-7.192,2.81-2.444-2.59-1.313-5.179,3.137-5.961-2.545.447-5.407-.292-6.192-3.189-.226-.833-.611-5.967-.611-6.661,0-3.473,2.949-2.382,4.769-.971ZM18.231,3.346c-2.522,1.955-5.235,5.919-6.231,8.047v5.619c0-.12.045.016.141.307.52,1.576,2.55,7.729,7.192,2.81,2.444-2.59,1.313-5.179-3.137-5.961,2.545.447,5.407-.292,6.192-3.189.226-.833.611-5.967.611-6.661,0-3.473-2.949-2.382-4.769-.971Z" /></symbol></svg>